<?xml version="1.0" standalone="no"?>
<!DOCTYPE svg PUBLIC "-//W3C//DTD SVG 20010904//EN"
 "http://www.w3.org/TR/2001/REC-SVG-20010904/DTD/svg10.dtd">
<svg version="1.0" xmlns="http://www.w3.org/2000/svg"
 width="700.000000pt" height="700.000000pt" viewBox="0 0 700.000000 700.000000"
 preserveAspectRatio="xMidYMid meet">
<metadata>
Created by potrace 1.11, written by Peter Selinger 2001-2013
</metadata>
<g transform="translate(0.000000,700.000000) scale(0.100000,-0.100000)"
fill="#000000" stroke="none">
<path d="M0 3500 l0 -3500 3500 0 3500 0 0 3500 0 3500 -3500 0 -3500 0 0
-3500z m4310 1392 c0 -27 -9 -51 -29 -78 -53 -74 -109 -97 -288 -119 -69 -9
-142 -23 -164 -31 -21 -9 -63 -42 -92 -74 -95 -102 -170 -279 -216 -510 -26
-131 -251 -1572 -253 -1622 -2 -44 15 -68 49 -68 35 0 77 24 150 87 36 30 70
52 76 50 7 -2 13 -18 15 -36 11 -108 -207 -339 -374 -396 -67 -23 -155 -22
-196 2 -20 11 -43 38 -58 68 -37 74 -32 179 33 613 l54 362 -344 0 c-189 0
-343 -3 -343 -6 0 -24 -113 -651 -121 -672 -6 -15 -21 -41 -35 -59 l-24 -31
51 -11 c68 -15 88 -14 158 8 52 16 62 17 72 4 27 -31 -79 -177 -170 -235 -56
-35 -110 -37 -224 -6 -108 28 -215 28 -280 -1 -84 -36 -106 -23 -87 50 7 26
35 65 85 118 40 43 83 97 94 118 10 22 31 93 44 159 35 166 241 1443 235 1450
-13 13 -150 26 -220 21 -100 -7 -151 -31 -222 -108 -69 -76 -92 -76 -90 -4 2
63 36 153 78 208 39 51 120 109 195 139 54 21 69 22 374 23 254 0 316 -2 312
-13 -18 -49 -68 -222 -84 -298 -22 -97 -91 -527 -91 -563 0 -21 0 -21 339 -21
l340 0 10 53 c6 28 26 144 46 257 62 358 112 537 200 715 90 182 196 293 350
366 124 58 236 83 442 99 67 5 130 13 140 19 10 6 28 11 41 11 19 0 22 -5 22
-38z m902 -381 c97 -25 138 -46 138 -70 0 -46 -178 -161 -248 -161 -18 0 -59
7 -89 16 -37 11 -83 15 -142 12 -77 -3 -93 -6 -129 -32 -54 -37 -98 -107 -129
-204 -25 -79 -46 -198 -178 -1000 -42 -256 -84 -486 -96 -516 -11 -30 -33 -74
-49 -98 l-29 -43 47 -7 c26 -4 126 -12 222 -19 302 -19 454 8 609 109 74 48
86 50 101 21 35 -65 -61 -209 -193 -288 -205 -122 -372 -141 -822 -96 -306 31
-417 30 -505 -4 -30 -11 -66 -21 -79 -21 -23 0 -24 2 -18 58 6 68 24 108 79
174 50 60 107 88 181 88 49 0 59 3 73 25 42 63 67 184 168 791 58 346 114 654
124 684 47 135 126 255 239 360 164 154 274 212 463 244 48 9 187 -4 262 -23z"/>
</g>
</svg>
